<svg width="132" height="110" viewBox="0 0 132 110" fill="none" xmlns="http://www.w3.org/2000/svg">
<g filter="url(#filter0_d_122_122)">
<path d="M19.3476 64.1094C18.3035 64.4697 17.7491 65.6082 18.1094 66.6524L23.9808 83.6679C24.341 84.712 25.4796 85.2664 26.5237 84.9061C27.5679 84.5458 28.1223 83.4073 27.762 82.3631L22.543 67.2382L37.6679 62.0192C38.712 61.659 39.2664 60.5204 38.9061 59.4763C38.5458 58.4321 37.4073 57.8777 36.3631 58.238L19.3476 64.1094ZM110.017 65.7383C108.829 74.7408 106.383 80.6698 102.764 84.2601C99.2171 87.7796 94.2329 89.35 87.2151 88.9352C80.1475 88.5175 71.2409 86.0922 60.1891 81.8505C49.1623 77.6184 36.1403 71.6346 20.8756 64.2018L19.1244 67.7982C34.4128 75.2424 47.5614 81.2885 58.7559 85.5849C69.9254 89.8718 79.2908 92.4739 86.9791 92.9283C94.7171 93.3856 100.972 91.6727 105.582 87.0997C110.12 82.5975 112.747 75.6246 113.983 66.2617L110.017 65.7383Z" fill="white"/>
<path d="M112.652 47.8906C113.697 47.5303 114.251 46.3918 113.891 45.3476L108.019 28.3321C107.659 27.288 106.52 26.7336 105.476 27.0939C104.432 27.4542 103.878 28.5927 104.238 29.6369L109.457 44.7618L94.3321 49.9808C93.288 50.341 92.7336 51.4796 93.0939 52.5237C93.4542 53.5679 94.5927 54.1223 95.6369 53.762L112.652 47.8906ZM21.9828 46.2617C23.1709 37.2592 25.6168 31.3302 29.2355 27.7399C32.7829 24.2204 37.7671 22.65 44.7849 23.0648C51.8525 23.4825 60.7591 25.9078 71.8109 30.1495C82.8377 34.3816 95.8597 40.3654 111.124 47.7982L112.876 44.2018C97.5872 36.7576 84.4386 30.7115 73.2441 26.4151C62.0746 22.1282 52.7092 19.5261 45.0209 19.0717C37.2829 18.6144 31.0276 20.3273 26.4183 24.9003C21.8805 29.4025 19.2528 36.3754 18.0172 45.7383L21.9828 46.2617Z" fill="white"/>
</g>
<defs>
<filter id="filter0_d_122_122" x="-0.000488281" y="0.000244141" width="132.001" height="110" filterUnits="userSpaceOnUse" color-interpolation-filters="sRGB">
<feFlood flood-opacity="0" result="BackgroundImageFix"/>
<feColorMatrix in="SourceAlpha" type="matrix" values="0 0 0 0 0 0 0 0 0 0 0 0 0 0 0 0 0 0 127 0" result="hardAlpha"/>
<feOffset dy="-1"/>
<feGaussianBlur stdDeviation="9"/>
<feComposite in2="hardAlpha" operator="out"/>
<feColorMatrix type="matrix" values="0 0 0 0 1 0 0 0 0 1 0 0 0 0 1 0 0 0 1 0"/>
<feBlend mode="normal" in2="BackgroundImageFix" result="effect1_dropShadow_122_122"/>
<feBlend mode="normal" in="SourceGraphic" in2="effect1_dropShadow_122_122" result="shape"/>
</filter>
</defs>
</svg>
