<svg width="41" height="36" viewBox="0 0 41 36" fill="none" xmlns="http://www.w3.org/2000/svg">
<path d="M25.9168 13.6299C26.4996 12.055 28.7272 12.055 29.31 13.6299L30.9403 18.0359C31.1236 18.531 31.514 18.9214 32.0091 19.1047L36.4151 20.735C37.99 21.3178 37.99 23.5454 36.4151 24.1282L32.0091 25.7585C31.514 25.9417 31.1236 26.3321 30.9403 26.8273L29.31 31.2333C28.7272 32.8082 26.4996 32.8082 25.9168 31.2333L24.2865 26.8273C24.1032 26.3321 23.7128 25.9417 23.2177 25.7585L18.8117 24.1282C17.2368 23.5454 17.2368 21.3178 18.8117 20.735L23.2177 19.1047C23.7128 18.9214 24.1032 18.531 24.2865 18.0359L25.9168 13.6299Z" fill="white"/>
<path d="M8.50557 2.75095C8.85524 1.80598 10.1918 1.80598 10.5415 2.75095L11.7933 6.13396C11.9032 6.43105 12.1375 6.66529 12.4345 6.77523L15.8176 8.02705C16.7625 8.37672 16.7625 9.71327 15.8176 10.0629L12.4346 11.3148C12.1375 11.4247 11.9032 11.6589 11.7933 11.956L10.5415 15.339C10.1918 16.284 8.85524 16.284 8.50557 15.339L7.25374 11.956C7.14381 11.6589 6.90957 11.4247 6.61247 11.3148L3.22947 10.0629C2.2845 9.71327 2.2845 8.37672 3.22947 8.02705L6.61247 6.77523C6.90957 6.66529 7.14381 6.43105 7.25374 6.13396L8.50557 2.75095Z" fill="white"/>
</svg>
