<svg width="21" height="21" viewBox="0 0 21 21" fill="none" xmlns="http://www.w3.org/2000/svg">
<path d="M16.2269 16.2266C12.9893 19.4642 7.78379 19.5298 4.62686 16.3729C1.46993 13.216 1.53558 8.01047 4.77315 4.77289C8.01073 1.53532 13.2162 1.46967 16.3732 4.6266C19.5301 7.78353 19.4644 12.989 16.2269 16.2266ZM17.6586 17.6583C21.711 13.6058 21.793 7.10984 17.8414 3.15831C13.8899 -0.79322 7.39391 -0.711294 3.34144 3.34118C-0.711036 7.39365 -0.792961 13.8897 3.15857 17.8412C7.1101 21.7927 13.6061 21.7108 17.6586 17.6583ZM9.76586 11.2339L12.6293 14.0973L14.0976 12.629L11.2342 9.7656L13.4366 7.56317L7.63658 7.63632L7.56343 13.4363L9.76586 11.2339Z" fill="white"/>
</svg>
