<svg width="96" height="35" viewBox="0 0 96 35" fill="none" xmlns="http://www.w3.org/2000/svg">
<path d="M1.34763 6.10939C0.303467 6.46969 -0.250908 7.60822 0.109383 8.65237L5.98075 25.6679C6.34105 26.712 7.47958 27.2664 8.52374 26.9061C9.56789 26.5458 10.1223 25.4073 9.76197 24.3631L4.54298 9.23824L19.6679 4.01925C20.712 3.65895 21.2664 2.52042 20.9061 1.47626C20.5458 0.432106 19.4073 -0.122269 18.3631 0.238026L1.34763 6.10939ZM92.0172 7.73833C90.8291 16.7408 88.3832 22.6698 84.7645 26.2601C81.2171 29.7796 76.2329 31.35 69.2151 30.9352C62.1475 30.5175 53.2409 28.0922 42.1891 23.8505C31.1623 19.6184 18.1403 13.6346 2.87556 6.20184L1.12443 9.79816C16.4128 17.2424 29.5614 23.2885 40.7559 27.5849C51.9254 31.8718 61.2908 34.4739 68.9791 34.9283C76.7171 35.3856 82.9724 33.6727 87.5817 29.0997C92.1195 24.5975 94.7472 17.6246 95.9828 8.26167L92.0172 7.73833Z" fill="white"/>
</svg>
