<svg width="186" height="145" viewBox="0 0 186 145" fill="none" xmlns="http://www.w3.org/2000/svg">
<g filter="url(#filter0_d_122_138)">
<path d="M58 29L57.2496 30.8539L57.2882 30.8695L57.3273 30.8835L58 29ZM81 60.5L80.2564 58.6434L80.1274 58.695L80.0068 58.764L81 60.5ZM61.9982 60.563C60.9285 60.2879 59.8382 60.932 59.563 62.0018C59.2879 63.0715 59.932 64.1618 61.0018 64.437L61.9982 60.563ZM23.0264 74.5713L23.7535 72.7081L23.0264 74.5713ZM95.2676 46.9768L94.5016 48.8243L95.2676 46.9768ZM88.5545 49.77L90.3413 50.6685L88.5545 49.77ZM112.893 52.4677L113.85 54.2235L112.893 52.4677ZM109.009 52.6743L108.243 54.5218L109.009 52.6743ZM117.134 49.3016L118.902 50.2374L117.134 49.3016ZM115.31 51.1493L116.267 52.9051L115.31 51.1493ZM118.611 46.5117L120.379 47.4475L118.611 46.5117ZM79.3065 26.1852L78.5972 28.0552L79.3065 26.1852ZM63.2293 30.8676L63.9019 28.9841L63.2293 30.8676ZM66.6951 30.6863L65.8296 28.8833L66.6951 30.6863ZM57.3273 30.8835L62.5566 32.7511L63.9019 28.9841L58.6727 27.1165L57.3273 30.8835ZM67.5606 32.4894L76.6236 28.1391L74.8927 24.533L65.8296 28.8833L67.5606 32.4894ZM78.5972 28.0552L115.518 42.0595L116.936 38.3195L80.0158 24.3152L78.5972 28.0552ZM116.844 45.5759L115.367 48.3658L118.902 50.2374L120.379 47.4475L116.844 45.5759ZM114.352 49.3935L111.935 50.7119L113.85 54.2235L116.267 52.9051L114.352 49.3935ZM109.775 50.8268L96.0337 45.1293L94.5016 48.8243L108.243 54.5218L109.775 50.8268ZM86.7677 48.8716C85.6129 51.1681 84.1374 53.6224 82.7845 55.5584C82.1069 56.5282 81.4825 57.3356 80.9642 57.917C80.7044 58.2084 80.4937 58.4177 80.3351 58.555C80.1506 58.7146 80.1321 58.6931 80.2564 58.6434L81.7436 62.3566C82.2316 62.1612 82.647 61.8441 82.9529 61.5794C83.2846 61.2923 83.6205 60.9483 83.9499 60.5789C84.6099 59.8386 85.3338 58.8936 86.0634 57.8496C87.5249 55.7579 89.0993 53.1386 90.3413 50.6685L86.7677 48.8716ZM80.0068 58.764C76.6568 60.6806 74.1058 61.5709 71.5094 61.7988C68.8755 62.0299 66.0178 61.597 61.9982 60.563L61.0018 64.437C65.1479 65.5034 68.5364 66.0751 71.8591 65.7835C75.2193 65.4886 78.3354 64.3287 81.9932 62.236L80.0068 58.764ZM58.7504 27.1461L42.161 20.4313L40.6602 24.1391L57.2496 30.8539L58.7504 27.1461ZM33.5649 24.3523L18.5099 68.2628L22.2937 69.5601L37.3487 25.6496L33.5649 24.3523ZM22.2993 76.4344L38.7729 82.8632L40.2271 79.1368L23.7535 72.7081L22.2993 76.4344ZM18.5099 68.2628C17.3787 71.5621 19.0502 75.1665 22.2993 76.4344L23.7535 72.7081C22.5018 72.2197 21.8579 70.8311 22.2937 69.5601L18.5099 68.2628ZM42.161 20.4313C38.7014 19.031 34.7754 20.8218 33.5649 24.3523L37.3487 25.6496C37.815 24.2896 39.3274 23.5997 40.6602 24.1391L42.161 20.4313ZM96.0337 45.1293C92.3705 43.6105 88.3761 45.6729 86.7677 48.8716L90.3413 50.6685C91.1861 48.9885 93.1205 48.2517 94.5016 48.8243L96.0337 45.1293ZM111.935 50.7119C111.269 51.075 110.475 51.1172 109.775 50.8268L108.243 54.5218C110.061 55.2756 112.122 55.166 113.85 54.2235L111.935 50.7119ZM115.367 48.3658C115.137 48.8006 114.784 49.158 114.352 49.3935L116.267 52.9051C117.388 52.2937 118.305 51.3659 118.902 50.2374L115.367 48.3658ZM115.518 42.0595C116.927 42.5942 117.549 44.2434 116.844 45.5759L120.379 47.4475C122.21 43.9886 120.595 39.7075 116.936 38.3195L115.518 42.0595ZM76.6236 28.1391C77.2423 27.8422 77.9556 27.8119 78.5972 28.0552L80.0158 24.3152C78.3503 23.6835 76.4986 23.7622 74.8927 24.533L76.6236 28.1391ZM62.5566 32.7511C64.1926 33.3354 65.9944 33.2412 67.5606 32.4894L65.8296 28.8833C65.2263 29.1729 64.5322 29.2092 63.9019 28.9841L62.5566 32.7511Z" fill="white"/>
<path d="M66 74.5L52.8009 82.2374C51.9566 82.7323 51.2964 83.4886 50.92 84.3919L49.9905 86.6229C49.3767 88.0959 49.5877 89.7836 50.5451 91.0601L53.0368 94.3824C53.3434 94.7912 53.7172 95.1448 54.1423 95.4282L55 96M55 96L84 80M55 96L53.0737 97.6511C52.0749 98.5073 51.5 99.7571 51.5 101.073V103.136C51.5 104.025 51.7634 104.895 52.2569 105.635L52.5336 106.05C53.1554 106.983 54.1026 107.651 55.1902 107.923L59.5 109M59.5 109L92.5 90.5M59.5 109V112.369C59.5 112.788 59.5584 113.204 59.6734 113.607L60.1279 115.198C60.3706 116.047 60.8576 116.806 61.5283 117.381L63.0234 118.663C63.6536 119.203 64.4562 119.5 65.2863 119.5V119.5C65.7572 119.5 66.2232 119.404 66.656 119.219L69.5 118L74.5 115.241M98.5 102L74.5 115.241M74.5 115.241V119.936C74.5 120.636 74.6629 121.326 74.9758 121.952L75.5365 123.073C75.8413 123.683 76.2839 124.213 76.8292 124.622V124.622C77.5892 125.192 78.5135 125.5 79.4635 125.5H80.5H82.4758C83.4517 125.5 84.3877 125.112 85.0778 124.422V124.422C85.3574 124.143 85.6803 123.91 86.0341 123.733L87.5 123L125.164 102.186C125.388 102.062 125.6 101.92 125.8 101.76L137.707 92.2344C137.902 92.0784 138.084 91.9065 138.25 91.7203L146.5 82.5L148.035 80.9651C148.343 80.6567 148.695 80.3946 149.079 80.1872L163.358 72.4687C165.417 71.3555 166.281 68.8507 165.346 66.7044L146.917 24.4004C145.878 22.0163 143.043 21.0036 140.729 22.1902L125.5 30" stroke="white" stroke-width="4" stroke-linecap="round"/>
</g>
<defs>
<filter id="filter0_d_122_138" x="0.156738" y="0.691772" width="185.566" height="143.808" filterUnits="userSpaceOnUse" color-interpolation-filters="sRGB">
<feFlood flood-opacity="0" result="BackgroundImageFix"/>
<feColorMatrix in="SourceAlpha" type="matrix" values="0 0 0 0 0 0 0 0 0 0 0 0 0 0 0 0 0 0 127 0" result="hardAlpha"/>
<feOffset dy="-1"/>
<feGaussianBlur stdDeviation="9"/>
<feComposite in2="hardAlpha" operator="out"/>
<feColorMatrix type="matrix" values="0 0 0 0 1 0 0 0 0 1 0 0 0 0 1 0 0 0 1 0"/>
<feBlend mode="normal" in2="BackgroundImageFix" result="effect1_dropShadow_122_138"/>
<feBlend mode="normal" in="SourceGraphic" in2="effect1_dropShadow_122_138" result="shape"/>
</filter>
</defs>
</svg>
