<svg width="104" height="64" viewBox="0 0 104 64" fill="none" xmlns="http://www.w3.org/2000/svg">
<path d="M40 10L39.2496 11.8539L39.2882 11.8695L39.3273 11.8835L40 10ZM63 41.5L62.2564 39.6434L62.1274 39.695L62.0068 39.764L63 41.5ZM43.9982 41.563C42.9285 41.2879 41.8382 41.932 41.563 43.0018C41.2879 44.0715 41.932 45.1618 43.0018 45.437L43.9982 41.563ZM5.0264 55.5713L5.75349 53.7081L5.0264 55.5713ZM77.2676 27.9768L76.5016 29.8243L77.2676 27.9768ZM70.5545 30.77L72.3413 31.6685L70.5545 30.77ZM94.8926 33.4677L95.8503 35.2235L94.8926 33.4677ZM91.0086 33.6743L90.2425 35.5218L91.0086 33.6743ZM99.1344 30.3016L100.902 31.2374L99.1344 30.3016ZM97.3096 32.1493L98.2673 33.9051L97.3096 32.1493ZM100.611 27.5117L102.379 28.4475L100.611 27.5117ZM61.3065 7.18524L60.5972 9.05523L61.3065 7.18524ZM45.2293 11.8676L45.9019 9.98411L45.2293 11.8676ZM48.6951 11.6863L47.8296 9.8833L48.6951 11.6863ZM39.3273 11.8835L44.5566 13.7511L45.9019 9.98411L40.6727 8.11652L39.3273 11.8835ZM49.5606 13.4894L58.6236 9.13914L56.8927 5.53305L47.8296 9.8833L49.5606 13.4894ZM60.5972 9.05523L97.5176 23.0595L98.9362 19.3195L62.0158 5.31524L60.5972 9.05523ZM98.8439 26.5759L97.3669 29.3658L100.902 31.2374L102.379 28.4475L98.8439 26.5759ZM96.3519 30.3935L93.9349 31.7119L95.8503 35.2235L98.2673 33.9051L96.3519 30.3935ZM91.7746 31.8268L78.0337 26.1293L76.5016 29.8243L90.2425 35.5218L91.7746 31.8268ZM68.7677 29.8716C67.6129 32.1681 66.1374 34.6224 64.7845 36.5584C64.1069 37.5282 63.4825 38.3356 62.9642 38.917C62.7044 39.2084 62.4937 39.4177 62.3351 39.555C62.1506 39.7146 62.1321 39.6931 62.2564 39.6434L63.7436 43.3566C64.2316 43.1612 64.647 42.8441 64.9529 42.5794C65.2846 42.2923 65.6205 41.9483 65.9499 41.5789C66.6099 40.8386 67.3338 39.8936 68.0634 38.8496C69.5249 36.7579 71.0993 34.1386 72.3413 31.6685L68.7677 29.8716ZM62.0068 39.764C58.6568 41.6806 56.1058 42.5709 53.5094 42.7988C50.8755 43.0299 48.0178 42.597 43.9982 41.563L43.0018 45.437C47.1479 46.5034 50.5364 47.0751 53.8591 46.7835C57.2193 46.4886 60.3354 45.3287 63.9932 43.236L62.0068 39.764ZM40.7504 8.14611L24.161 1.43134L22.6602 5.13913L39.2496 11.8539L40.7504 8.14611ZM15.5649 5.35234L0.509882 49.2628L4.29367 50.5601L19.3487 6.64963L15.5649 5.35234ZM4.29932 57.4344L20.7729 63.8632L22.2271 60.1368L5.75349 53.7081L4.29932 57.4344ZM0.509882 49.2628C-0.621291 52.5621 1.05018 56.1665 4.29932 57.4344L5.75349 53.7081C4.50181 53.2197 3.8579 51.8311 4.29367 50.5601L0.509882 49.2628ZM24.161 1.43134C20.7014 0.0310287 16.7754 1.82183 15.5649 5.35234L19.3487 6.64963C19.815 5.28956 21.3274 4.59968 22.6602 5.13913L24.161 1.43134ZM78.0337 26.1293C74.3705 24.6105 70.3761 26.6729 68.7677 29.8716L72.3413 31.6685C73.1861 29.9885 75.1205 29.2517 76.5016 29.8243L78.0337 26.1293ZM93.9349 31.7119C93.2692 32.075 92.475 32.1172 91.7746 31.8268L90.2425 35.5218C92.0607 36.2756 94.1224 36.166 95.8503 35.2235L93.9349 31.7119ZM97.3669 29.3658C97.1367 29.8006 96.7837 30.158 96.3519 30.3935L98.2673 33.9051C99.3883 33.2937 100.305 32.3659 100.902 31.2374L97.3669 29.3658ZM97.5176 23.0595C98.9273 23.5942 99.5493 25.2434 98.8439 26.5759L102.379 28.4475C104.21 24.9886 102.595 20.7075 98.9362 19.3195L97.5176 23.0595ZM58.6236 9.13914C59.2423 8.84219 59.9556 8.81186 60.5972 9.05523L62.0158 5.31524C60.3503 4.68349 58.4986 4.76221 56.8927 5.53305L58.6236 9.13914ZM44.5566 13.7511C46.1926 14.3354 47.9944 14.2412 49.5606 13.4894L47.8296 9.8833C47.2263 10.1729 46.5322 10.2092 45.9019 9.98411L44.5566 13.7511Z" fill="white"/>
</svg>
