<svg width="147" height="200" viewBox="0 0 147 200" fill="none" xmlns="http://www.w3.org/2000/svg">
<g filter="url(#filter0_d_122_117)">
<path d="M112.303 27.5849C112.886 26.01 115.114 26.01 115.697 27.5849L118.573 35.3583C118.756 35.8534 119.147 36.2438 119.642 36.427L127.415 39.3034C128.99 39.8862 128.99 42.1138 127.415 42.6966L119.642 45.573C119.147 45.7562 118.756 46.1466 118.573 46.6417L115.697 54.4151C115.114 55.99 112.886 55.99 112.303 54.4151L109.427 46.6417C109.244 46.1466 108.853 45.7562 108.358 45.573L100.585 42.6966C99.01 42.1138 99.01 39.8862 100.585 39.3034L108.358 36.427C108.853 36.2438 109.244 35.8534 109.427 35.3583L112.303 27.5849Z" fill="white"/>
<g filter="url(#filter1_d_122_117)">
<path d="M20.8161 101.834L48.6022 43.9677C52.1038 36.6754 63.1294 40.1479 61.8201 48.1307L57.3339 75.4828C56.635 79.7442 59.9234 83.6158 64.2416 83.6158H84.2637C89.5643 83.6158 92.9417 89.2784 90.4229 93.9423L60.563 149.23C56.6333 156.506 45.5521 152.151 47.6281 144.146L53.7289 120.622C54.8785 116.189 51.5324 111.864 46.953 111.864H27.1264C21.9715 111.864 18.5848 106.481 20.8161 101.834Z" stroke="white" stroke-width="4" shape-rendering="crispEdges"/>
</g>
</g>
<defs>
<filter id="filter0_d_122_117" x="0.115234" y="7.40369" width="146.481" height="164.545" filterUnits="userSpaceOnUse" color-interpolation-filters="sRGB">
<feFlood flood-opacity="0" result="BackgroundImageFix"/>
<feColorMatrix in="SourceAlpha" type="matrix" values="0 0 0 0 0 0 0 0 0 0 0 0 0 0 0 0 0 0 127 0" result="hardAlpha"/>
<feOffset dy="-1"/>
<feGaussianBlur stdDeviation="9"/>
<feComposite in2="hardAlpha" operator="out"/>
<feColorMatrix type="matrix" values="0 0 0 0 1 0 0 0 0 1 0 0 0 0 1 0 0 0 1 0"/>
<feBlend mode="normal" in2="BackgroundImageFix" result="effect1_dropShadow_122_117"/>
<feBlend mode="normal" in="SourceGraphic" in2="effect1_dropShadow_122_117" result="shape"/>
</filter>
<filter id="filter1_d_122_117" x="6.11523" y="24.968" width="99.1611" height="140.98" filterUnits="userSpaceOnUse" color-interpolation-filters="sRGB">
<feFlood flood-opacity="0" result="BackgroundImageFix"/>
<feColorMatrix in="SourceAlpha" type="matrix" values="0 0 0 0 0 0 0 0 0 0 0 0 0 0 0 0 0 0 127 0" result="hardAlpha"/>
<feOffset dy="-1"/>
<feGaussianBlur stdDeviation="6"/>
<feComposite in2="hardAlpha" operator="out"/>
<feColorMatrix type="matrix" values="0 0 0 0 1 0 0 0 0 1 0 0 0 0 1 0 0 0 0.5 0"/>
<feBlend mode="normal" in2="BackgroundImageFix" result="effect1_dropShadow_122_117"/>
<feBlend mode="normal" in="SourceGraphic" in2="effect1_dropShadow_122_117" result="shape"/>
</filter>
</defs>
</svg>
