<svg width="30" height="30" viewBox="0 0 30 30" fill="none" xmlns="http://www.w3.org/2000/svg">
<path d="M13.3034 1.58492C13.8862 0.00997178 16.1138 0.00997139 16.6966 1.58492L19.573 9.35825C19.7562 9.85341 20.1466 10.2438 20.6417 10.427L28.4151 13.3034C29.99 13.8862 29.99 16.1138 28.4151 16.6966L20.6417 19.573C20.1466 19.7562 19.7562 20.1466 19.573 20.6417L16.6966 28.4151C16.1138 29.99 13.8862 29.99 13.3034 28.4151L10.427 20.6417C10.2438 20.1466 9.85341 19.7562 9.35825 19.573L1.58492 16.6966C0.00997178 16.1138 0.00997139 13.8862 1.58492 13.3034L9.35825 10.427C9.85341 10.2438 10.2438 9.85341 10.427 9.35825L13.3034 1.58492Z" fill="white"/>
</svg>
