<svg width="205" height="18" viewBox="0 0 205 18" fill="none" xmlns="http://www.w3.org/2000/svg">
<path d="M2.64984 6.94416L6.57517 4.68283L9.79651 2.82683C10.2801 2.54238 10.8063 2.40016 11.3752 2.40016H15.6632C17.0569 2.40016 18.2445 2.89794 19.2258 3.89349C20.2214 4.87483 20.7192 6.06238 20.7192 7.45616V17.3335H18.4365V7.45616C18.4365 6.70238 18.1663 6.05527 17.6258 5.51483C17.0854 4.96016 16.4312 4.68283 15.6632 4.68283H8.3885C7.81962 4.68283 7.29339 4.82505 6.80984 5.1095L4.2285 6.60283C3.73073 6.88727 3.33962 7.27127 3.05517 7.75483C2.78495 8.22416 2.64984 8.75038 2.64984 9.3335V17.3335H0.367171V2.40016H2.64984V6.94416ZM30.1705 2.40016H37.5092C38.8603 2.40016 40.1047 2.73438 41.2425 3.40283C42.3945 4.07127 43.3047 4.9815 43.9732 6.13349C44.6416 7.27127 44.9758 8.51572 44.9758 9.86683C44.9758 10.3077 44.9332 10.7486 44.8478 11.1895C44.535 12.9388 43.6816 14.4037 42.2878 15.5842C40.9083 16.7504 39.3154 17.3335 37.5092 17.3335H30.1705C28.3501 17.3335 26.7501 16.7504 25.3705 15.5842C23.9909 14.4037 23.1447 12.9388 22.8318 11.1895C22.7465 10.7486 22.7038 10.3077 22.7038 9.86683C22.7038 8.51572 23.0381 7.27127 23.7065 6.13349C24.3749 4.9815 25.2781 4.07127 26.4158 3.40283C27.5678 2.73438 28.8194 2.40016 30.1705 2.40016ZM30.1705 15.0508H37.5092C38.2772 15.0508 39.0025 14.8873 39.6852 14.5602C40.3821 14.2331 40.9723 13.7851 41.4558 13.2162C41.9394 12.6331 42.2878 11.9788 42.5012 11.2535C42.6292 10.7984 42.6932 10.3362 42.6932 9.86683C42.6932 9.1415 42.5438 8.45172 42.2452 7.7975C41.975 7.18594 41.6052 6.6455 41.1358 6.17616C40.6665 5.70683 40.1118 5.34416 39.4718 5.08816C38.8461 4.81794 38.1918 4.68283 37.5092 4.68283H30.1705C29.1323 4.68283 28.1794 4.97438 27.3118 5.55749C26.4585 6.12638 25.8327 6.87305 25.4345 7.7975C25.1358 8.45172 24.9865 9.1415 24.9865 9.86683C24.9865 10.3362 25.0505 10.7984 25.1785 11.2535C25.4914 12.3628 26.1101 13.2731 27.0345 13.9842C27.9589 14.6953 29.0043 15.0508 30.1705 15.0508ZM78.3322 4.68283H65.4468C64.4086 4.68283 63.4557 4.97438 62.5882 5.55749C61.7348 6.12638 61.1091 6.87305 60.7108 7.7975C60.6682 7.88283 60.6255 7.97527 60.5828 8.07483C60.3695 8.65794 60.2628 9.25527 60.2628 9.86683C60.2628 10.1797 60.2913 10.4855 60.3482 10.7842L64.2948 8.5015C64.7926 8.21705 65.3188 8.07483 65.8735 8.07483H73.2762C74.1437 8.07483 74.9473 8.28105 75.6868 8.6935C76.4406 9.10594 77.0451 9.66061 77.5002 10.3575C77.9553 11.0544 78.2255 11.8082 78.3108 12.6188C78.3251 12.7895 78.3322 13.1806 78.3322 13.7922V13.8135L76.2202 15.0508L76.0495 15.1362L72.9988 16.9068C72.5011 17.1913 71.9748 17.3335 71.4202 17.3335H57.9802V15.0508H74.3855C74.9544 15.0508 75.4806 14.9086 75.9642 14.6242L76.0495 14.5815V13.1308C76.0495 12.3771 75.7793 11.7299 75.2388 11.1895C74.6984 10.6348 74.0442 10.3575 73.2762 10.3575H62.9082C62.3393 10.3575 61.8131 10.4997 61.3295 10.7842L60.4548 11.2748L58.4495 12.4482C58.3926 12.3202 58.3428 12.1922 58.3002 12.0642C58.2148 11.7797 58.1508 11.4882 58.1082 11.1895C58.0228 10.7486 57.9802 10.3077 57.9802 9.86683C57.9802 9.25527 58.0513 8.65794 58.1935 8.07483C58.4637 6.99394 58.9473 6.02683 59.6442 5.17349C60.3411 4.30594 61.1944 3.63038 62.2042 3.14683C63.2282 2.64905 64.3091 2.40016 65.4468 2.40016H78.3322V4.68283ZM100.202 2.40016V4.68283H87.3163C86.2781 4.68283 85.3252 4.97438 84.4577 5.55749C83.6043 6.12638 82.9715 6.87305 82.559 7.7975C82.2746 8.45172 82.1323 9.1415 82.1323 9.86683C82.1323 10.3362 82.1963 10.7984 82.3243 11.2535C82.4808 11.7939 82.7155 12.2917 83.0283 12.7468L86.0577 11.0188L89.279 9.1415C89.7626 8.85705 90.2817 8.71483 90.8363 8.71483H100.202V10.9975H87.871C87.3021 10.9975 86.7759 11.1397 86.2923 11.4242L84.3723 12.5335C84.0879 12.7042 83.9386 12.9531 83.9243 13.2802C83.9101 13.6073 84.031 13.8633 84.287 14.0482C85.1972 14.7166 86.207 15.0508 87.3163 15.0508H96.255C96.8239 15.0508 97.3501 14.9086 97.8337 14.6242L97.919 14.5815L100.202 13.2588V13.8135L98.0897 15.0508L94.8683 16.9068C94.3706 17.1913 93.8443 17.3335 93.2897 17.3335H87.3163C86.4203 17.3335 85.5528 17.1771 84.7137 16.8642C83.8888 16.5513 83.1492 16.1246 82.495 15.5842C81.855 15.0295 81.3075 14.3753 80.8523 13.6215C80.4115 12.8535 80.1199 12.0428 79.9777 11.1895C79.8923 10.7486 79.8497 10.3077 79.8497 9.86683C79.8497 8.51572 80.1839 7.27127 80.8523 6.13349C81.5208 4.9815 82.4239 4.07127 83.5617 3.40283C84.7137 2.73438 85.9652 2.40016 87.3163 2.40016H100.202ZM122.969 7.45616C122.969 7.58416 122.969 7.71927 122.969 7.8615C122.941 8.20283 122.877 8.53705 122.777 8.86416L122.628 8.9495L120.025 10.4642C120.224 10.5211 120.416 10.5993 120.601 10.6988C120.871 10.8268 121.12 10.9833 121.348 11.1682C121.433 11.2393 121.511 11.3104 121.583 11.3815C122.507 12.2348 122.969 13.2873 122.969 14.5388V17.3335H120.687V14.5388C120.687 14.0268 120.509 13.5788 120.153 13.1948C119.812 12.8108 119.392 12.5904 118.895 12.5335V12.5122C118.823 12.5122 118.752 12.5122 118.681 12.5122H110.639C110.07 12.5122 109.543 12.6544 109.06 12.9388L106.479 14.4322C105.639 14.9157 105.135 15.6268 104.964 16.5655C104.921 16.7646 104.9 16.9637 104.9 17.1628V17.3335H102.617V2.40016H117.913C119.307 2.40016 120.495 2.89794 121.476 3.89349C122.471 4.87483 122.969 6.06238 122.969 7.45616ZM117.913 10.2295C118.61 10.2295 119.215 10.0019 119.727 9.54683C120.253 9.09172 120.566 8.52994 120.665 7.8615C120.679 7.7335 120.687 7.59838 120.687 7.45616C120.687 6.70238 120.416 6.05527 119.876 5.51483C119.335 4.96016 118.681 4.68283 117.913 4.68283H104.9V14.7735L108.825 12.5122L112.047 10.6562C112.53 10.3717 113.049 10.2295 113.604 10.2295H117.913ZM127.476 8.90683V12.0855V12.1068C127.476 12.6757 127.611 13.2019 127.881 13.6855C128.165 14.1548 128.557 14.5317 129.054 14.8162L129.182 14.9015C129.353 15.0011 129.538 15.0508 129.737 15.0508H141.001C141.2 15.0508 141.385 15.0011 141.556 14.9015L141.684 14.8162C142.196 14.5317 142.587 14.1548 142.857 13.6855C143.127 13.2019 143.262 12.6757 143.262 12.1068V2.40016H145.545V12.5122C145.545 12.9388 145.36 13.2588 144.99 13.4722L143.262 14.4748L143.22 14.5175L142.281 15.0508L139.785 16.4802L139.358 16.7362L138.569 17.1842C138.398 17.2837 138.213 17.3335 138.014 17.3335H132.724C132.525 17.3335 132.34 17.2837 132.169 17.1842L131.401 16.7362L128.478 15.0508L127.54 14.5175L127.476 14.4748L125.748 13.4722C125.378 13.2588 125.193 12.9388 125.193 12.5122V2.40016H127.476V8.90683ZM150.399 2.40016V17.3335H148.117V2.40016H150.399ZM172.91 2.40016V4.68283H160.025C158.986 4.68283 158.034 4.97438 157.166 5.55749C156.313 6.12638 155.687 6.87305 155.289 7.7975C154.99 8.45172 154.841 9.1415 154.841 9.86683C154.841 10.3504 154.905 10.8126 155.033 11.2535C155.346 12.3628 155.964 13.2731 156.889 13.9842C157.813 14.6953 158.858 15.0508 160.025 15.0508H168.963C169.532 15.0508 170.058 14.9086 170.542 14.6242L170.627 14.5815L172.91 13.2588V13.8135L170.798 15.0508L167.577 16.9068C167.079 17.1913 166.553 17.3335 165.998 17.3335H160.025C159.129 17.3335 158.261 17.1771 157.422 16.8642C156.597 16.5513 155.858 16.1246 155.203 15.5842C154.563 15.0295 154.016 14.3753 153.561 13.6215C153.12 12.8535 152.828 12.0428 152.686 11.1895C152.601 10.7486 152.558 10.3077 152.558 9.86683C152.558 8.51572 152.892 7.27127 153.561 6.13349C154.229 4.9815 155.132 4.07127 156.27 3.40283C157.422 2.73438 158.674 2.40016 160.025 2.40016H172.91ZM194.243 2.40016V4.68283H181.358C180.32 4.68283 179.367 4.97438 178.499 5.55749C177.646 6.12638 177.013 6.87305 176.601 7.7975C176.316 8.45172 176.174 9.1415 176.174 9.86683C176.174 10.3362 176.238 10.7984 176.366 11.2535C176.522 11.7939 176.757 12.2917 177.07 12.7468L180.099 11.0188L183.321 9.1415C183.804 8.85705 184.323 8.71483 184.878 8.71483H194.243V10.9975H181.913C181.344 10.9975 180.818 11.1397 180.334 11.4242L178.414 12.5335C178.13 12.7042 177.98 12.9531 177.966 13.2802C177.952 13.6073 178.073 13.8633 178.329 14.0482C179.239 14.7166 180.249 15.0508 181.358 15.0508H190.297C190.866 15.0508 191.392 14.9086 191.875 14.6242L191.961 14.5815L194.243 13.2588V13.8135L192.131 15.0508L188.91 16.9068C188.412 17.1913 187.886 17.3335 187.331 17.3335H181.358C180.462 17.3335 179.594 17.1771 178.755 16.8642C177.93 16.5513 177.191 16.1246 176.537 15.5842C175.897 15.0295 175.349 14.3753 174.894 13.6215C174.453 12.8535 174.162 12.0428 174.019 11.1895C173.934 10.7486 173.891 10.3077 173.891 9.86683C173.891 8.51572 174.226 7.27127 174.894 6.13349C175.562 4.9815 176.466 4.07127 177.603 3.40283C178.755 2.73438 180.007 2.40016 181.358 2.40016H194.243ZM201.288 0.693495L200.52 3.87216L202.91 1.63216L204.062 3.61616L200.904 4.55483L204.062 5.4935L202.91 7.45616L200.52 5.21616L201.288 8.39483H199.006L199.752 5.21616L197.384 7.45616L196.232 5.4935L199.368 4.55483L196.232 3.61616L197.384 1.63216L199.752 3.87216L199.006 0.693495H201.288Z" fill="white"/>
</svg>
