<svg width="75" height="75" viewBox="0 0 75 75" fill="none" xmlns="http://www.w3.org/2000/svg">
<path d="M53.75 18.75C53.75 27.7287 46.4787 35 37.5 35C28.5213 35 21.25 27.7287 21.25 18.75C21.25 9.77134 28.5213 2.5 37.5 2.5C46.4787 2.5 53.75 9.77134 53.75 18.75ZM2.5 65.625C2.5 63.426 3.58171 61.3149 5.79493 59.2722C8.02514 57.2138 11.2336 55.3983 14.9863 53.8949C22.4957 50.8867 31.5547 49.375 37.5 49.375C43.4453 49.375 52.5043 50.8867 60.0137 53.8949C63.7664 55.3983 66.9749 57.2138 69.2051 59.2722C71.4183 61.3149 72.5 63.426 72.5 65.625V67C72.5 70.0376 70.0376 72.5 67 72.5H8C4.96243 72.5 2.5 70.0376 2.5 67V65.625Z" stroke="white" stroke-width="5"/>
</svg>
