<svg width="75" height="75" viewBox="0 0 75 75" fill="none" xmlns="http://www.w3.org/2000/svg">
<path d="M59.021 9.95579C61.8503 12.1773 66.1676 12.3613 68.9727 9.55796C70.2747 8.25676 72.5 9.17891 72.5 11.0197V24.8125C72.5 27.8501 70.0376 30.3125 67 30.3125H57.285C53.9352 30.3125 52.2582 26.262 54.6276 23.8941C57.9032 20.6206 58.3541 14.6383 53.7959 11.6957C49.0979 8.66285 43.5186 6.875 37.4765 6.875C20.572 6.875 6.83396 20.6022 6.83396 37.5C6.83396 54.3978 20.572 68.125 37.4765 68.125C49.4774 68.125 59.86 61.2163 64.868 51.1709C65.4492 50.0052 66.4781 49.375 67.4332 49.375C68.2269 49.375 68.8598 49.7482 69.2108 50.2284C69.5408 50.6798 69.6311 51.2176 69.3729 51.7948C63.9117 64.0057 51.725 72.5 37.4765 72.5C18.1282 72.5 2.5 56.8406 2.5 37.5C2.5 18.1594 18.1282 2.5 37.4765 2.5C45.619 2.5 53.0745 5.28666 59.021 9.95579Z" stroke="white" stroke-width="5"/>
</svg>
