<svg width="121" height="109" viewBox="0 0 121 109" fill="none" xmlns="http://www.w3.org/2000/svg">
<path d="M19 55.5L5.80088 63.2374C4.95663 63.7323 4.29642 64.4886 3.92003 65.3919L2.99045 67.6229C2.37672 69.0959 2.58768 70.7836 3.5451 72.0601L6.03684 75.3824C6.34338 75.7912 6.71719 76.1448 7.14229 76.4282L8 77M8 77L37 61M8 77L6.07373 78.6511C5.07487 79.5073 4.5 80.7571 4.5 82.0727V84.1355C4.5 85.0252 4.76335 85.895 5.25687 86.6353L5.53357 87.0503C6.15543 87.9831 7.10264 88.6507 8.19024 88.9226L12.5 90M12.5 90L45.5 71.5M12.5 90V93.3688C12.5 93.7876 12.5584 94.2043 12.6734 94.6069L13.1279 96.1978C13.3706 97.0472 13.8576 97.8065 14.5283 98.3814L16.0234 99.6629C16.6536 100.203 17.4562 100.5 18.2863 100.5V100.5C18.7572 100.5 19.2232 100.404 19.656 100.219L22.5 99L27.5 96.2414M51.5 83L27.5 96.2414M27.5 96.2414V100.936C27.5 101.636 27.6629 102.326 27.9758 102.952L28.5365 104.073C28.8413 104.683 29.2839 105.213 29.8292 105.622V105.622C30.5892 106.192 31.5135 106.5 32.4635 106.5H33.5H35.4758C36.4517 106.5 37.3877 106.112 38.0778 105.422V105.422C38.3574 105.143 38.6803 104.91 39.0341 104.733L40.5 104L78.1642 83.1856C78.3877 83.0621 78.6002 82.9198 78.7996 82.7603L90.707 73.2344C90.902 73.0784 91.0837 72.9065 91.2502 72.7203L99.5 63.5L101.035 61.9651C101.343 61.6567 101.695 61.3946 102.079 61.1872L116.358 53.4687C118.417 52.3555 119.281 49.8507 118.346 47.7044L99.917 5.40037C98.8784 3.01627 96.043 2.00357 93.7291 3.19023L78.5 11" stroke="white" stroke-width="4" stroke-linecap="round"/>
</svg>
