<svg width="10" height="10" viewBox="0 0 10 10" fill="none" xmlns="http://www.w3.org/2000/svg">
<path d="M5.93785 1.53451C5.61569 0.663888 4.38431 0.663888 4.06215 1.53451L3.53903 2.94821C3.43774 3.22193 3.22193 3.43774 2.94821 3.53903L1.53451 4.06215C0.663888 4.38431 0.663888 5.61569 1.53451 5.93785L2.94821 6.46097C3.22193 6.56226 3.43774 6.77807 3.53903 7.05179L4.06215 8.46549C4.38431 9.33611 5.61569 9.33611 5.93785 8.46549L6.46097 7.05179C6.56226 6.77807 6.77807 6.56226 7.05179 6.46097L8.46549 5.93785C9.33611 5.61569 9.33611 4.38431 8.46549 4.06215L7.05179 3.53903C6.77807 3.43774 6.56226 3.22193 6.46097 2.94821L5.93785 1.53451Z" fill="white"/>
</svg>
