<svg width="21" height="21" viewBox="0 0 21 21" fill="none" xmlns="http://www.w3.org/2000/svg">
<path d="M11.5242 1.75844C11.1025 0.618799 9.49057 0.618799 9.06886 1.75844L7.43851 6.1644C7.20465 6.79642 6.70634 7.29473 6.07432 7.52859L1.66836 9.15895C0.528719 9.58065 0.528719 11.1925 1.66836 11.6142L6.07432 13.2446C6.70634 13.4785 7.20465 13.9768 7.43851 14.6088L9.06886 19.0147C9.49057 20.1544 11.1025 20.1544 11.5242 19.0147L13.1545 14.6088C13.3884 13.9768 13.8867 13.4785 14.5187 13.2446L18.9247 11.6142C20.0643 11.1925 20.0643 9.58065 18.9247 9.15895L14.5187 7.52859C13.8867 7.29473 13.3884 6.79642 13.1545 6.1644L11.5242 1.75844Z" stroke="white"/>
</svg>
