<svg width="15" height="15" viewBox="0 0 15 15" fill="none" xmlns="http://www.w3.org/2000/svg">
<path d="M8.50402 0.924469C8.31543 0.41481 7.59458 0.41481 7.40599 0.924469L6.15416 4.30747C5.99359 4.74143 5.65144 5.08358 5.21748 5.24415L1.83448 6.49598C1.32482 6.68457 1.32482 7.40542 1.83448 7.59401L5.21748 8.84584C5.65144 9.00641 5.99359 9.34856 6.15416 9.78252L7.40599 13.1655C7.59458 13.6752 8.31543 13.6752 8.50402 13.1655L9.75585 9.78252C9.91642 9.34856 10.2586 9.00641 10.6925 8.84584L14.0755 7.59401C14.5852 7.40542 14.5852 6.68457 14.0755 6.49598L10.6925 5.24415C10.2586 5.08357 9.91643 4.74143 9.75585 4.30747L8.50402 0.924469Z" stroke="white"/>
</svg>
