<svg width="75" height="75" viewBox="0 0 75 75" fill="none" xmlns="http://www.w3.org/2000/svg">
<path d="M37.5 60C36.589 60 35.8333 59.2443 35.8333 58.3333C35.8333 57.4224 36.589 56.6667 37.5 56.6667C38.4109 56.6667 39.1667 57.4224 39.1667 58.3333C39.1667 59.2443 38.411 60 37.5 60ZM35.8333 4.16667C35.8333 3.24619 36.5795 2.5 37.5 2.5C56.8276 2.5 72.5 18.1724 72.5 37.5C72.5 56.8276 56.8276 72.5 37.5 72.5C18.1325 72.5 2.5 56.8294 2.5 37.5C2.5 26.7889 7.31229 17.2631 14.8979 10.8501L38.6697 34.6219C39.3158 35.268 39.3158 36.3154 38.6697 36.9614C38.0237 37.6074 36.9763 37.6074 36.3303 36.9614L22.9097 23.5408C20.7325 21.3636 17.7673 20.3101 14.9565 20.5827C12.0792 20.8617 9.37823 22.5504 8.1137 25.6837C6.63982 29.3358 5.83333 33.3263 5.83333 37.5C5.83333 55.0057 19.9943 69.1667 37.5 69.1667C55.0057 69.1667 69.1667 55.0057 69.1667 37.5C69.1667 23.1399 59.6223 11.0936 46.5667 7.19311C42.5359 5.98886 39.1667 9.30113 39.1667 12.9543C39.1667 13.6239 38.6239 14.1667 37.9543 14.1667H37.5C36.5795 14.1667 35.8333 13.4205 35.8333 12.5V4.16667ZM15.0302 7.55025L15.0376 7.56005L15.0302 7.55025ZM58.3333 35.8333C59.2443 35.8333 60 36.589 60 37.5C60 38.411 59.2443 39.1667 58.3333 39.1667C57.4224 39.1667 56.6667 38.4109 56.6667 37.5C56.6667 36.589 57.4224 35.8333 58.3333 35.8333ZM16.6667 39.1667C15.7557 39.1667 15 38.411 15 37.5C15 36.589 15.7557 35.8333 16.6667 35.8333C17.5776 35.8333 18.3333 36.589 18.3333 37.5C18.3333 38.4109 17.5776 39.1667 16.6667 39.1667Z" stroke="white" stroke-width="5"/>
</svg>
